<svg id="Camada_1" data-name="Camada 1" xmlns="http://www.w3.org/2000/svg" viewBox="0 0 75 72">
  <defs>
    <style>
      .cls-1 {
        fill: #fff;
      }
    </style>
  </defs>
  <g>
    <path class="cls-1" d="M990.22,1011.51a2.36,2.36,0,0,0,2.18,2.58c1.06.08,2.12.15,3.19.15,10.49,0,21-.13,31.46.17a4.75,4.75,0,0,1,2.51,1.07,2.38,2.38,0,0,1-.06,3.93,5,5,0,0,1-2.57,1c-11.31.27-22.64.22-34,.1-7.1-.08-10.07-4.23-8.94-11.16a21.19,21.19,0,0,0-.46-9.14c-2.54-8.59-5.72-17-8.36-25.55-.94-3.06-2.39-4.2-5.6-4.33-1.77-.07-3.5-1-5.23-1.77a2.36,2.36,0,0,1-1.39-2.15v-.08a2.36,2.36,0,0,1,2.36-2.36h10.22a2.38,2.38,0,0,1,2.07,1.22,28.28,28.28,0,0,1,3,6.24c1,4,3,5.52,7.3,5.44,14.61-.3,29.24-.2,43.86,0a13,13,0,0,1,4.81,1.55,2.36,2.36,0,0,1,1.4,2.16h0a2.45,2.45,0,0,1-.14.8c-2.64,7.33-5.4,14.6-7.84,22-1.1,3.34-2.73,4.79-6.43,4.69-9.31-.25-18.64,0-28-.14C992.39,1007.88,990.5,1008.72,990.22,1011.51Z" transform="translate(-963 -964)"/>
    <path class="cls-1" d="M993.87,1032.77c-.06.92-1.26,1.78-2.25,2.65a2.38,2.38,0,0,1-1.55.58h-3a2.36,2.36,0,0,1-1.71-.74c-1.12-1.15-2.5-2.31-2.48-3.44,0-2.34.78-5.8,2.37-6.67a8.23,8.23,0,0,1,7.44.62C994.08,1026.89,994,1030.38,993.87,1032.77Z" transform="translate(-963 -964)"/>
    <path class="cls-1" d="M1027.91,1036h-3.73a2.41,2.41,0,0,1-1.94-1c-3-4.18-3.1-7.34-.15-9.7s5.86-2.13,8.48.41,2.31,5.57-.81,9.4A2.38,2.38,0,0,1,1027.91,1036Z" transform="translate(-963 -964)"/>
  </g>
</svg>
