<svg id="Camada_1" data-name="Camada 1" xmlns="http://www.w3.org/2000/svg" viewBox="0 0 416.54 348.25">
  <defs>
    <style>
      .cls-1 {
        fill: #7965c1;
      }

      .cls-2 {
        fill: #483aa0;
      }
    </style>
  </defs>
  <g>
    <path class="cls-1" d="M982.28,981.42c42.73,12.24,84.38,20.37,120.69,23.72a.16.16,0,0,1,.14.21l-2.22,6.66a.16.16,0,0,1-.15.12h-168a.16.16,0,0,1-.15-.12L915,959a.16.16,0,0,1,.21-.2C936.2,967.06,958.8,974.68,982.28,981.42Z" transform="translate(-791.73 -663.87)"/>
    <path class="cls-1" d="M1154.53,851.07,1137,903.69l-1.5,4.5-2.26,6.78-1.51,4.54L1122,948.67a3.42,3.42,0,0,1-3.36,2.33c-31.16-1.09-75.76-9.23-121.28-22.27-40.46-11.6-77.59-25.75-104.8-39.92a3.37,3.37,0,0,1-1.65-1.94l-12-36.06a4.3,4.3,0,0,1-.19-.92c0-.14,0-.28,0-.43a3.38,3.38,0,0,1,5-2.7,37,37,0,0,0,7.74,3.1c15.47,4.39,34.38,1.64,52.36,19.94,11,11.24,15.83,24.42,23.1,23.1,6.94-1.25,6.16-13.92,15.4-23.1a25,25,0,0,1,6-4.41,23.33,23.33,0,0,1,2.2-1,3.57,3.57,0,0,1,1.58-.27q6,.36,12,.58,10.85.39,21.66.28c4.87-.06,9.72-.18,14.57-.39a443.9,443.9,0,0,0,109.42-18.4A3.86,3.86,0,0,1,1154.53,851.07Z" transform="translate(-791.73 -663.87)"/>
    <path class="cls-2" d="M1026.29,787.31A244.93,244.93,0,0,1,1067,788a31.51,31.51,0,0,0-14,8.17c-4.44,4.6-5.48,8.79-9,9C1037.93,805.5,1036.16,793.36,1026.29,787.31Z" transform="translate(-791.73 -663.87)"/>
    <path class="cls-2" d="M1156.14,822.92c-.13,8.28-19.9,14.29-42.05,21-49.72,15.12-91.1,14-91.1,14-8.59-.23-16.42-.88-23.33-.38h0a34.52,34.52,0,0,0-12.08,2.79,23.45,23.45,0,0,0-4.89,3,22.49,22.49,0,0,0-1.72,1.55c-8.4,8.34-7.69,19.87-14,21-6.62,1.2-11-10.79-21-21a50.91,50.91,0,0,0-8.91-7.3c-15.34-9.82-30.8-7.13-43.19-12.41a28.47,28.47,0,0,1-5.45-3,27.4,27.4,0,0,1-4.94-4.59c-.2-.23-.39-.46-.58-.7-16.63-20.75-2.5-56.7,0-63.07,4.33-11,11.85-23.39,17.35-27.07a4.47,4.47,0,0,1,3.68-1c1.23.39,1.89,1.61,2.16,3.45,1.35,8.78-5.79,31.73.73,46.44a20.94,20.94,0,0,0,4.11,6.17,17.58,17.58,0,0,0,6.6,4.3,22.58,22.58,0,0,0,9.46,1.74c4.41,0,10.39-.75,20-2.5a184.38,184.38,0,0,0,26.55-7c8.42-2.74,16.37-5.33,29.2-7a91.26,91.26,0,0,1,11.26-.84c6.2,0,8.11,1.12,9,1.67,3.83,2.26,6.19,5.9,8.48,9.42,2.87,4.42,6.11,9.42,12.3,9.42l.63,0c5.08-.31,7.64-3.88,9.7-6.76a33.9,33.9,0,0,1,3.26-4.06c6.11-6.33,14.85-7.67,22.57-8.85a38.3,38.3,0,0,1,5.82-.42c1.31,0,2.64.06,4,.16a234.74,234.74,0,0,1,24.4,5.93c15,4.55,27.05,10.08,34.32,15.43C1153.43,816.21,1156.18,819.79,1156.14,822.92Z" transform="translate(-791.73 -663.87)"/>
    <path class="cls-1" d="M1149.06,806.54c-.52,1-41.6-25.38-70.07-21a85.07,85.07,0,0,0-12,2.45,31.51,31.51,0,0,0-14,8.17c-4.44,4.6-5.48,8.79-9,9-6.07.37-7.84-11.77-17.71-17.82l-.29-.18c-2.9-1.71-7.81-3.69-24.1-1.62-24.65,3.14-32,9.64-56.06,14-18.14,3.3-23.54,3.09-28,0-13.91-9.55-11.32-41.3-.52-62.81,16.57-33,56.32-49.65,63.59-42.31,7.92,8-24.65,42.62-14,56.07,7.34,9.29,27.84-1,52.3-3.31C1089,740.46,1151.46,802,1149.06,806.54Z" transform="translate(-791.73 -663.87)"/>
    <path class="cls-2" d="M972.92,745.6C969,740.25,983,722.42,986.4,718.23c.14-.17.3-.36.53-.66,3.77-4.74,6.29-10.35,7-14,1-5.34-1.63-10.57-7-21s-7.85-11.81-7-14c2.78-7.28,29.41-5,49.05,0a149.61,149.61,0,0,1,56.06,28c42.82,34.5,61.86,87.07,56.07,91.1-2.65,1.84-8.48-7.86-28-21-18.66-12.56-46.23-31.13-77.09-28-32.27,3.23-49.06,7-49.06,7C981.47,746.83,975,748.45,972.92,745.6Z" transform="translate(-791.73 -663.87)"/>
    <path class="cls-2" d="M1143.21,912.3a3.34,3.34,0,0,0-4.78,1.87l-.28.84a3.33,3.33,0,0,0,1.34,3.85C1155,929,1163.15,938.2,1161.18,945c-2.26,7.92-17.69,11.36-41.52,10.66l-.82,0c-2.58-.09-5.27-.22-8-.4l-3.25-.23-2.42-.2-2.44-.21q-3.3-.3-6.73-.68c-1.71-.19-3.46-.4-5.23-.62-1.09-.13-2.2-.28-3.31-.43l-4-.54-2.7-.39-2.74-.41c-1.89-.29-3.82-.6-5.76-.92-1.25-.2-2.51-.41-3.78-.64h0c-1.28-.22-2.57-.44-3.87-.68l-2-.35-3.12-.58-4.09-.79-1.43-.28c-1.09-.21-2.19-.43-3.28-.67l-2.3-.46-3.47-.73-1.37-.29-3.45-.76-1.66-.37q-2.55-.57-5.15-1.18l-4.52-1.06-1.56-.37q-4.82-1.17-9.7-2.42c-1.41-.35-2.82-.72-4.25-1.09l-.44-.12-2.51-.65-1.31-.36c-2.39-.64-4.78-1.29-7.19-2l-2.45-.69-3.24-.92-3.79-1.1-3.25-1-2.82-.84-1.5-.46L982,929l-2.35-.72-5.81-1.83-3.6-1.16-2.26-.74-3.07-1-3.06-1-1-.33-1.79-.61-2.94-1c-1.15-.39-2.29-.8-3.43-1.2Q942.49,915.75,933,912l-3.14-1.24-3.1-1.25-3-1.24L921,907.15l-3.2-1.35-2.91-1.26L912,903.29c-2.51-1.11-5-2.23-7.36-3.35l-1.44-.67-1.4-.67-1.41-.67c-1.34-.64-2.67-1.28-4-1.93l-2.94-1.47-.45-.23c-.7-.35-1.4-.71-2.08-1.07-.2-.1-.4-.2-.59-.31-27.47-14.31-43.22-27.85-40.58-37.08,1.71-6,10.86-9.38,25.44-10.41l1.56-.1a3.38,3.38,0,0,0,2.42-5.48c-.34-.41-.66-.83-1-1.26a3.27,3.27,0,0,0-2.48-1.36c-46.52-2-78.41,5.64-83.35,22.86-7.08,24.72,43.49,62,120.53,92.8a740.55,740.55,0,0,0,70.65,24c43.92,12.58,85.74,20.48,121.13,23.66,57,5.12,97.31-2,102.91-21.56C1212.77,961,1187.28,936.3,1143.21,912.3Z" transform="translate(-791.73 -663.87)"/>
  </g>
</svg>
