<svg id="Camada_1" data-name="Camada 1" xmlns="http://www.w3.org/2000/svg" viewBox="0 0 784.97 218.6">
  <defs>
    <style>
      .cls-1, .cls-2 {
        fill: #e3d095;
      }

      .cls-2 {
        font-size: 70px;
        font-family: CatCafe;
        letter-spacing: 0.3em;
      }
    </style>
  </defs>
  <g>
    <path class="cls-1" d="M736.6,524.4h-53c-3.2,0-5,1.8-5,5v11.4c0,3.2,1.8,5,5,5H716c-5.6,21.4-22.2,33.6-42.2,33.6-28.8,0-48.8-21.2-48.8-56.8,0-35.2,19.8-53.8,45.6-53.8,16.6,0,31,8,40.4,21.8a6.23,6.23,0,0,0,6,3.4l12.8-.2c3.6-.2,5.4-2.4,4-5.8-9.8-24.4-33.2-40.2-61.4-40.2-40.4,0-71.2,31.4-71.2,76.4s28.6,76.4,69,76.4c43.2,0,69.6-31.8,70.8-71.2C741,526,739.2,524.4,736.6,524.4Z" transform="translate(-601.2 -447.8)"/>
    <path class="cls-1" d="M879.6,591.6,827.8,455a5.37,5.37,0,0,0-5.6-4h-15a5.37,5.37,0,0,0-5.6,4L749.8,591.6c-1.4,3.6.2,5.8,4,5.8h15.8a5.37,5.37,0,0,0,5.6-4l13.6-38.6h51.6l13.4,38.6a5.37,5.37,0,0,0,5.6,4h16.2C879.4,597.4,881,595.2,879.6,591.6Zm-83.2-58.2,18.4-52,18,52Z" transform="translate(-601.2 -447.8)"/>
    <path class="cls-1" d="M987.4,576H916.8l-.6-120c0-3.2-1.8-5-5-5H897.6c-3.2,0-5,1.8-5,5l-1,136.4c0,3.2,1.8,5,5,5h90.8a5.56,5.56,0,0,0,3.05-.78,4.67,4.67,0,0,0,1.95-4.22V581C992.4,577.8,990.6,576,987.4,576Z" transform="translate(-601.2 -447.8)"/>
    <path class="cls-1" d="M1033.59,559.87h0L1021.8,593.4a5.64,5.64,0,0,1-2.68,3.38,6.32,6.32,0,0,1-2.92.62h-15.8c-3.8,0-5.4-2.2-4-5.8L1012.93,548c5.84,3.75,12.06,7.38,18.62,10.81l1.34.69Z" transform="translate(-601.2 -447.8)"/>
    <path class="cls-1" d="M1039.28,539.71l1.24.67-.62,1.74-3.74,10.53-.76,2.15-.78,2.2-1.25-.64c-6.85-3.59-13.31-7.39-19.31-11.33l1.74-4.59,4-10.63.72-1.9A187.8,187.8,0,0,0,1039.28,539.71Z" transform="translate(-601.2 -447.8)"/>
    <path class="cls-1" d="M1087.14,555.19l-.14-.39-7.6-21.4L1062.65,485l-1.25-3.61-1,2.74L1043,533.4l-1.54,4.35,0,0a167.79,167.79,0,0,1-16.77-10.57c-1-.7-1.91-1.39-2.83-2.09l-.14-.11,17.88-47.15,1.55-4.07.52-1.38.48-1.27,1.26-3.32,1.13-3,3.71-9.77a5.37,5.37,0,0,1,5.6-4h15a5.37,5.37,0,0,1,5.6,4l9.71,25.59,1.59,4.2,1.79,4.71.7,1.85.74,2,2.29,6.05L1113,556.82l-.49.07c-1.12.15-2.29.26-3.5.33A83.28,83.28,0,0,1,1087.14,555.19Z" transform="translate(-601.2 -447.8)"/>
    <path class="cls-1" d="M1121.61,579.51a111.69,111.69,0,0,1-25-1.38c-.52-.08-1-.16-1.57-.26l-2-5.7-3.82-11-.82-2.36c.54.13,1.08.24,1.61.35a94.48,94.48,0,0,0,24.78,2.33l1.11,2.92,3.24,8.54Z" transform="translate(-601.2 -447.8)"/>
    <path class="cls-1" d="M1122.2,597.4H1106a6.25,6.25,0,0,1-2.94-.63,5.65,5.65,0,0,1-2.66-3.37l-4.09-11.78,1.14.2,1.68.28a124.1,124.1,0,0,0,24.08,1.62l3,7.88C1127.6,595.2,1126,597.4,1122.2,597.4Z" transform="translate(-601.2 -447.8)"/>
    <path class="cls-1" d="M1260.2,591.4,1214.4,523l43.8-66c2.2-3.4.8-6-3.2-6h-13.8a6.84,6.84,0,0,0-6,3.2L1202,504.4l-33.4-50.2a6.84,6.84,0,0,0-6-3.2h-14.8c-4,0-5.6,2.6-3.2,6l41.4,64.2-26.19,38.63L1147.47,578l-9.07,13.37c-2.4,3.4-1,6,3.2,6H1158a7,7,0,0,0,6.2-3.2l34.4-53.6,34.4,53.6a6.84,6.84,0,0,0,6,3.2h18C1261,597.4,1262.4,594.8,1260.2,591.4Z" transform="translate(-601.2 -447.8)"/>
    <path class="cls-1" d="M1381.79,451H1367.6a5.93,5.93,0,0,0-5.8,3.6l-31,59h-1.6l-31.4-59c-1.2-2.6-3-3.6-5.8-3.6h-15.2c-4,0-5.4,2.4-3.6,6l44.2,81.2-.4,54.2c0,3.2,1.8,5,5,5h15.2c3.2,0,5-1.8,5-5l-.6-54,43.8-81.4C1387.2,453.4,1385.79,451,1381.79,451Z" transform="translate(-601.2 -447.8)"/>
  </g>
  <text class="cls-2" transform="translate(175.49 202.78)">cupcakes</text>
  <path class="cls-1" d="M1094.62,489.7c-1.26-.74-2.54-1.46-3.84-2.18l2.59,6.83.78,2c31.84,19.48,49.83,43.34,41.1,56.46-3,4.51-8.81,7.23-16.56,8.26-1.25.17-2.56.29-3.91.37a94.48,94.48,0,0,1-24.78-2.33c-.53-.11-1.07-.22-1.61-.35a187.12,187.12,0,0,1-43.4-16.07q-2.27-1.15-4.47-2.36l-1.24-.67a187.8,187.8,0,0,1-18.73-11.8c-1.08-.78-2.13-1.55-3.16-2.33-22.7-17.2-34.19-35.77-26.87-46.78,6.19-9.3,24.35-11,46.87-6l.54-1.41,1.76-4.67-2.54-.65c-31.94-7.95-58.73-5.56-67.92,8.25-11.1,16.69,7,44.82,41.6,68.5,1.06.73,2.14,1.45,3.23,2.17,6,3.94,12.46,7.74,19.31,11.33l1.25.64.65.34c20.59,10.53,41.42,17.46,59.74,20.53.53.1,1,.18,1.57.26a111.69,111.69,0,0,0,25,1.38c1.34-.09,2.64-.22,3.91-.38,11.44-1.42,20.14-5.45,24.62-12.19C1162.65,548.14,1138.1,514.82,1094.62,489.7Zm-6.43,1.65-.7-1.85-1.79-4.71-1.61-.83a227,227,0,0,0-40.73-16.2l-1.26,3.32-.48,1.27-.52,1.38.16,0c1.09.27,2.18.56,3.29.88,5.15,1.41,10.49,3.15,15.91,5.21l2.17.84c6,2.37,12.08,5.11,18.16,8.22,1,.5,2,1,2.91,1.52,1.56.83,3.08,1.66,4.58,2.5l.65.37Z" transform="translate(-601.2 -447.8)"/>
</svg>
